<?xml version="1.0" standalone="no"?><svg xmlns="http://www.w3.org/2000/svg" viewBox="0 0 1440 320"><path fill="#ffffff" fill-opacity="1" d="M0,160L24,144C48,128,96,96,144,106.7C192,117,240,171,288,197.3C336,224,384,224,432,229.3C480,235,528,245,576,229.3C624,213,672,171,720,181.3C768,192,816,256,864,261.3C912,267,960,213,1008,197.3C1056,181,1104,203,1152,197.3C1200,192,1248,160,1296,165.3C1344,171,1392,213,1416,234.7L1440,256L1440,320L1416,320C1392,320,1344,320,1296,320C1248,320,1200,320,1152,320C1104,320,1056,320,1008,320C960,320,912,320,864,320C816,320,768,320,720,320C672,320,624,320,576,320C528,320,480,320,432,320C384,320,336,320,288,320C240,320,192,320,144,320C96,320,48,320,24,320L0,320Z"></path></svg>